<svg width="98" height="16" viewBox="0 0 98 16" fill="none" xmlns="http://www.w3.org/2000/svg">
<path d="M55.6591 15.3612C55.6591 15.7859 55.4519 16 55.0411 16H52.9051C52.7158 16 52.5657 15.9322 52.4551 15.7966L43.1108 4.98956V15.3612C43.1108 15.7895 42.9036 16 42.4929 16H40.5997C40.1889 16 39.9854 15.7859 39.9854 15.3612V0.949403C39.9854 0.52469 40.1889 0.310547 40.5997 0.310547H42.9429C43.1322 0.310547 43.2965 0.389066 43.4394 0.546103L52.5336 11.0997V0.949403C52.5336 0.52469 52.7408 0.310547 53.148 0.310547H55.0411C55.4519 0.310547 55.6555 0.52469 55.6555 0.949403V15.3612H55.6591Z" fill="#111730"/>
<path d="M75.7871 14.9829C75.88 15.0935 75.93 15.2291 75.93 15.3862C75.93 15.7966 75.7263 16 75.3157 16H72.5685C72.3654 16 72.197 15.9287 72.0721 15.7859L67.7607 10.3681L63.4746 15.7395C63.3317 15.9144 63.1567 16 62.9531 16H60.2063C59.7812 16 59.5669 15.7966 59.5669 15.3862C59.5669 15.2291 59.6204 15.0863 59.7312 14.9614L65.7181 7.79483L60.4599 1.35628C60.367 1.22779 60.3205 1.0886 60.3205 0.927989C60.3205 0.517551 60.5242 0.310547 60.9349 0.310547H63.5389C63.7603 0.310547 63.9318 0.396204 64.0604 0.571087L67.7537 5.25724L71.4469 0.549673C71.5725 0.392635 71.7403 0.314116 71.944 0.314116H74.5477C74.9583 0.314116 75.162 0.52112 75.162 0.93156C75.162 1.0886 75.1158 1.23136 75.023 1.35984L69.772 7.79125L75.7871 14.9829Z" fill="#111730"/>
<path d="M88.4177 4.00803L93.6111 12.9949H83.2276L88.4177 4.00803ZM86.6921 0.995763L79.3268 13.7444C79.059 14.2083 79.059 14.7794 79.3268 15.2434C79.5952 15.7073 80.0916 15.9928 80.627 15.9928H96.2078C96.7439 15.9928 97.2403 15.7073 97.508 15.2434C97.7764 14.7794 97.7764 14.2083 97.508 13.7444L90.1394 0.995763C89.7859 0.381887 89.1249 0 88.4177 0C87.7067 0 87.0496 0.381887 86.6921 0.995763Z" fill="url(#paint0_linear_177_178)"/>
<path d="M35.2846 15.9928H19.7037C19.1679 15.9928 18.6715 15.7073 18.4035 15.2434C18.1357 14.7794 18.1357 14.2083 18.4035 13.7444L25.7689 0.995763C26.1225 0.381887 26.7834 0 27.4942 0C28.205 0 28.8623 0.381887 29.2195 0.995763L36.5848 13.7444C36.8527 14.2083 36.8527 14.7794 36.5848 15.2434C36.3133 15.7037 35.8204 15.9928 35.2846 15.9928ZM22.3005 12.9949H32.6843L27.4942 4.00803L22.3005 12.9949Z" fill="#111730"/>
<path d="M15.546 11.3853C15.546 12.663 15.0888 13.7516 14.1708 14.651C13.2564 15.5504 12.142 16 10.831 16H0.722389C0.297325 16 0.0830078 15.7859 0.0830078 15.3612V0.949403C0.0830078 0.52469 0.297325 0.310547 0.722389 0.310547H10.0309C11.3239 0.310547 12.4348 0.763816 13.36 1.67035C14.2851 2.57688 14.7459 3.66901 14.7459 4.94673C14.7459 5.98888 14.4208 6.92757 13.7743 7.7627C14.9566 8.67995 15.546 9.88629 15.546 11.3853ZM11.5454 4.93602C11.5454 4.42922 11.3918 4.00093 11.0811 3.65117C10.7739 3.3014 10.4059 3.12652 9.9773 3.12652H3.82641C3.41564 3.12652 3.20847 3.33352 3.20847 3.74753V6.12808C3.20847 6.54209 3.41564 6.74555 3.82641 6.74555H9.9773C10.4059 6.74555 10.7739 6.56705 11.0811 6.21016C11.3918 5.85326 11.5454 5.42855 11.5454 4.93602ZM12.3491 11.3853C12.3491 10.8821 12.1955 10.4502 11.8847 10.0968C11.5776 9.7435 11.2097 9.56507 10.781 9.56507H3.82641C3.41564 9.56507 3.20847 9.77921 3.20847 10.2039V12.5452C3.20847 12.9699 3.41564 13.1841 3.82641 13.1841H10.7846C11.2132 13.1841 11.5811 13.0056 11.8883 12.6523C12.1955 12.2954 12.3491 11.8743 12.3491 11.3853Z" fill="#111730"/>
<defs>
<linearGradient id="paint0_linear_177_178" x1="79.1257" y1="7.99571" x2="97.7072" y2="7.99571" gradientUnits="userSpaceOnUse">
<stop stop-color="#0172D0"/>
<stop offset="0.0644" stop-color="#0181CD"/>
<stop offset="0.2231" stop-color="#019FC8"/>
<stop offset="0.3899" stop-color="#00B7C3"/>
<stop offset="0.5666" stop-color="#00C8C0"/>
<stop offset="0.7597" stop-color="#00D2BF"/>
<stop offset="1" stop-color="#00D5BE"/>
</linearGradient>
</defs>
</svg>
