<svg width="40" height="27" viewBox="0 0 40 27" fill="none" xmlns="http://www.w3.org/2000/svg">
<path d="M23.1722 3.64067C23.2937 3.41137 23.4879 3.22764 23.7254 3.11737C24.0517 2.96743 24.3819 2.95227 24.6858 3.16631C24.7885 3.23974 24.8704 3.33787 24.9237 3.45129C25.1975 4.04191 25.47 4.6336 25.7202 5.23629C26.1219 6.20979 26.6664 7.11462 27.1112 8.06841C27.743 9.42497 28.3801 10.7784 29.0224 12.1288C29.3904 12.902 29.739 13.6926 30.2011 14.421C30.3276 14.613 30.466 14.797 30.6156 14.9721C30.6787 15.0437 30.7572 15.1007 30.8453 15.1389C31.5196 15.446 32.2459 15.5048 32.97 15.5498C33.3394 15.5732 33.7019 15.5237 34.0689 15.5235C34.7718 15.5247 35.4746 15.5259 36.1737 15.5499C36.6369 15.5664 37.0997 15.6195 37.5606 15.6675C37.7387 15.6923 37.9149 15.7291 38.0879 15.7778C38.1601 15.798 38.2298 15.8261 38.2957 15.8616C38.6715 16.053 38.7467 16.3739 38.4879 16.6998C38.272 16.9749 37.993 17.1955 37.6735 17.3435C36.9926 17.648 36.2827 17.8854 35.5539 18.052C34.8355 18.2274 34.1223 18.423 33.4143 18.6386C32.3312 18.9788 31.2209 19.2295 30.095 19.3881C29.3456 19.4842 28.5904 19.5313 27.8343 19.529C27.1546 19.5316 26.4758 19.4805 25.7941 19.4559C24.7543 19.4179 23.7176 19.341 22.6791 19.2567C21.1589 19.1451 19.6318 19.3152 18.177 19.7581C17.1947 20.0439 16.2087 20.3195 15.2299 20.6301C14.7688 20.7763 14.3229 20.9877 13.883 21.1777C13.3016 21.4268 12.7266 21.6961 12.1398 21.9372C10.711 22.5308 9.223 22.9066 7.65403 22.9119C6.83034 22.9313 6.00628 22.8799 5.19118 22.7584C4.70442 22.6746 4.21264 22.6366 3.73487 22.4707C2.20452 21.9307 1.18455 20.9188 0.822149 19.3365C0.723955 18.9247 0.720369 18.4968 0.811664 18.0841C0.902959 17.6714 1.08683 17.2844 1.34979 16.9513C1.6075 16.6131 1.85602 16.2568 2.13364 15.9293C2.688 15.2614 3.37779 14.715 4.15908 14.3249C4.88604 13.9567 5.6808 13.7355 6.49668 13.6745C7.01837 13.6252 7.54393 13.6279 8.06541 13.6825C8.24306 13.7019 8.41781 13.7479 8.5944 13.777C8.67649 13.786 8.75611 13.7947 8.85902 13.806C8.88102 13.7425 8.8977 13.6774 8.90888 13.6111C8.94896 13.0524 8.98413 12.4932 9.02175 11.9342C9.03787 11.787 9.04528 11.64 9.05146 11.4929C9.06396 11.1974 9.06653 10.9021 9.08503 10.6086C9.12683 9.95478 9.11964 9.29563 9.26463 8.65069C9.28502 8.5493 9.29629 8.44631 9.29832 8.34291C9.31976 7.82981 9.50343 7.36377 9.72306 6.90901C9.7447 6.86209 9.77037 6.81709 9.79978 6.77449C10.2201 6.21002 10.7318 5.71765 11.3144 5.31698C12.4431 4.53657 13.6986 3.9512 15.0275 3.58587C15.9569 3.32786 16.9076 3.15073 17.8689 3.05652C18.7567 2.97885 19.6511 3.00866 20.5322 3.14528C20.8358 3.19195 21.1424 3.23406 21.4439 3.25484C21.9679 3.28904 22.4839 3.40028 22.9749 3.58488C23.0358 3.6062 23.094 3.61867 23.1722 3.64067ZM9.55305 13.9785C9.64925 14.0171 9.74343 14.0628 9.84314 14.0921C10.5784 14.3142 11.3147 14.5353 12.0518 14.7552L12.1601 14.7744C12.0826 14.715 11.9937 14.6716 11.8988 14.6469C11.3479 14.4803 10.7997 14.3128 10.2469 14.1521C10.0187 14.0856 9.78471 14.0368 9.55414 13.9798C9.5091 13.6891 9.53466 13.6369 9.8018 13.5183C9.91797 13.4651 10.0355 13.4218 10.1506 13.3672C11.931 12.5926 13.798 12.0267 15.7136 11.681C17.1694 11.4091 18.6411 11.2259 20.1204 11.1325C21.39 11.0429 22.6644 11.0347 23.9356 11.1079C24.9164 11.1527 25.8912 11.2868 26.8475 11.5085C27.2858 11.6071 27.7139 11.7459 28.1262 11.9233C28.2729 11.9853 28.3925 12.0967 28.4638 12.2375C28.66 12.6193 28.868 12.9963 29.072 13.3753L29.9889 15.0794C30.0219 15.1404 30.0847 15.201 30.0097 15.3088C29.8489 15.2595 29.6779 15.2139 29.5119 15.1554C28.6552 14.861 27.7693 14.6576 26.8693 14.5486C25.9798 14.4292 25.0818 14.3529 24.1856 14.2951C23.4775 14.2506 22.7647 14.2618 22.0536 14.256C21.6272 14.2422 21.2005 14.2505 20.7751 14.281C19.9856 14.3582 19.2004 14.475 18.4139 14.5697L14.5635 15.0631C14.5208 15.0682 14.4789 15.0771 14.4373 15.0835L14.4323 15.1294C15.007 15.2007 15.5746 15.3209 16.1287 15.4885C15.7801 15.4675 15.434 15.4247 15.0866 15.3928C14.7392 15.3608 14.3864 15.3442 14.0344 15.3093C13.6824 15.2745 13.3648 15.1628 13.0153 15.2076C13.087 15.2601 13.1658 15.3024 13.2495 15.3334C13.9171 15.5971 14.5994 15.823 15.293 16.0102C16.244 16.2474 17.1879 16.5156 18.1332 16.7718C18.4728 16.8627 18.809 16.974 19.1547 17.0326C19.7146 17.1281 20.2798 17.1973 20.8446 17.2591C21.2465 17.3031 21.6504 17.3278 22.0537 17.3585C22.3833 17.3836 22.7099 17.401 23.0384 17.4247C23.8462 17.4863 24.6541 17.4794 25.4625 17.4678C26.728 17.4524 27.99 17.3402 29.2373 17.1322C29.6634 17.0567 30.0825 16.9426 30.5016 16.8296C30.8847 16.7275 31.2564 16.5935 31.6385 16.4899C32.2922 16.3172 32.9611 16.3904 33.6283 16.4341C33.7995 16.4443 33.9694 16.4776 34.1403 16.5024C34.3624 16.5353 34.582 16.5788 34.8052 16.6008C35.2659 16.6512 35.7288 16.6922 36.1921 16.7184C36.6247 16.7426 37.0562 16.7532 37.4931 16.7485C37.6795 16.7363 37.8639 16.704 38.043 16.6523C38.1221 16.6304 38.1953 16.5918 38.2575 16.539C38.4398 16.3916 38.4289 16.2194 38.2179 16.1194C38.0497 16.0387 37.8701 15.9836 37.6853 15.956C37.0261 15.857 36.3603 15.8086 35.6938 15.8113C35.3946 15.8152 35.095 15.8227 34.7962 15.823C34.6016 15.8225 34.4068 15.8121 34.2115 15.8066C34.5913 15.9044 34.9742 15.9744 35.3555 16.0479C35.7076 16.1157 36.0593 16.1872 36.4109 16.2599C36.4838 16.2803 36.5552 16.3057 36.6246 16.3358L36.6123 16.3797C36.5625 16.3815 36.5123 16.387 36.4631 16.3841C36.3212 16.3771 36.1783 16.3688 36.0372 16.3558C35.5744 16.3137 35.1117 16.2814 34.6521 16.2213C34.1925 16.1612 33.7066 16.0702 33.2334 15.9976C32.797 15.9303 32.3573 15.8809 31.9231 15.8041C31.3884 15.7035 30.8652 15.5501 30.3614 15.3461C30.2482 15.3061 30.1544 15.2256 30.0984 15.1207C29.6554 14.2978 29.1992 13.482 28.7641 12.6539C28.2746 11.7233 27.7984 10.7844 27.3221 9.8455C26.9631 9.13807 26.6016 8.43158 26.2634 7.71544C25.7822 6.68561 25.3133 5.65713 24.8479 4.61926C24.6947 4.27513 24.5065 3.94428 24.467 3.56864C24.1652 3.44888 23.7127 3.56181 23.528 3.79932C23.7598 3.94684 24.083 3.90526 24.3218 4.15859C24.2531 4.19321 24.1794 4.21727 24.1032 4.22994C23.9763 4.22726 23.8501 4.21057 23.7268 4.18018C23.4371 4.10817 23.1556 3.99552 22.8617 3.94014C22.3629 3.84157 21.859 3.76687 21.3571 3.68507C20.839 3.60488 20.3146 3.57243 19.7907 3.58812C19.2155 3.59845 18.6369 3.58397 18.0627 3.60784C16.1766 3.70186 14.4216 4.26218 12.7446 5.08509C12.1984 5.36183 11.6772 5.68354 11.1862 6.04681C10.8891 6.2492 10.6502 6.52385 10.4926 6.84423C10.0483 7.78863 9.87854 8.79606 9.81565 9.82375C9.78328 10.3686 9.75065 10.9159 9.71256 11.4565C9.67446 11.9971 9.6309 12.531 9.58708 13.0673C9.56303 13.287 9.53885 13.5079 9.52338 13.7285C9.48993 13.8189 9.47512 13.9089 9.55305 13.9785ZM38.0047 16.8325C37.7934 16.9047 37.5869 16.9908 37.3716 17.043C37.0988 17.1193 36.8192 17.1705 36.5366 17.1959C35.9889 17.2275 35.448 17.128 34.9064 17.0589C34.3647 16.9899 33.8532 16.9168 33.327 16.8421C33.0664 16.8109 32.8026 16.8203 32.5453 16.8701C31.9366 16.9721 31.3709 17.2131 30.7821 17.3819C30.4313 17.4828 30.0844 17.6048 29.7283 17.6867C29.2487 17.7979 28.7589 17.8665 28.2781 17.9775C27.6762 18.0967 27.0629 18.1524 26.4485 18.1437C25.5334 18.1559 24.6247 18.076 23.7128 18.025C23.2052 17.9963 22.6969 17.9956 22.1878 17.9802C21.6188 17.957 21.0496 17.946 20.4846 17.8866C19.9872 17.8322 19.4949 17.7307 19.0017 17.6376C18.4426 17.5332 17.8925 17.386 17.3563 17.1973C16.4384 16.8733 15.5214 16.5519 14.5957 16.2527C13.4143 15.8701 12.2284 15.5017 11.0381 15.1475C10.121 14.8724 9.20009 14.6092 8.27166 14.3695C7.9236 14.2802 7.56509 14.2372 7.20574 14.2419C6.35632 14.261 5.52128 14.4577 4.75591 14.819C4.30233 15.0292 3.8623 15.2666 3.43828 15.5298C3.10787 15.7322 2.79764 15.9648 2.51169 16.2247C1.85936 16.8307 1.40923 17.6178 1.22063 18.4823C1.06842 19.0917 1.16185 19.7363 1.48129 20.2807C1.75037 20.726 2.09432 21.123 2.49839 21.4547C2.52506 21.4757 2.55322 21.4947 2.58267 21.5116C2.50946 21.3742 2.42134 21.2449 2.31986 21.1262C2.01282 20.7611 1.77052 20.3476 1.6032 19.9032C1.38376 19.2575 1.3908 18.6268 1.73976 18.0213C1.98187 17.6221 2.31281 17.2825 2.7077 17.0279C3.42161 16.543 4.22765 16.2696 5.06186 16.0788C6.17644 15.8182 7.31674 15.6772 8.46287 15.6583C8.94824 15.6528 9.43422 15.6645 9.92072 15.6713C10.2054 15.6756 10.4912 15.6703 10.7732 15.6987C11.2579 15.7323 11.7399 15.7969 12.2163 15.8921C12.7384 16.0152 13.2436 16.2134 13.753 16.3852C14.8029 16.7383 15.8532 17.0878 16.898 17.4537C17.7506 17.7574 18.6281 17.9875 19.5206 18.1414C20.6311 18.3102 21.7519 18.4031 22.8749 18.4194C23.5855 18.441 24.2962 18.4724 25.006 18.489C25.5142 18.5019 26.0256 18.5298 26.5316 18.4948C27.742 18.4123 28.9441 18.2703 30.1117 17.9217C30.5629 17.7867 31.0176 17.6654 31.4676 17.5302C31.6958 17.4612 31.9163 17.3607 32.1462 17.2992C32.8977 17.0944 33.6597 17.1778 34.4196 17.2585C34.672 17.2861 34.921 17.3439 35.1737 17.3691C35.4263 17.3943 35.682 17.3918 35.9347 17.417C36.2402 17.4455 36.5478 17.4415 36.8522 17.4051C37.3074 17.3584 37.6637 17.1275 38.0016 16.8493L38.0047 16.8325Z" fill="#DE6B38"/>
<path d="M14.7014 6.06624C14.6487 6.02628 14.5607 5.99221 14.5442 5.93911C14.5277 5.886 14.5761 5.8058 14.6168 5.75162C14.6584 5.7092 14.708 5.67522 14.7629 5.65157C15.2839 5.34598 15.8464 5.11476 16.4337 4.96478C16.7875 4.88137 17.1486 4.79875 17.5058 4.73035C17.5792 4.71784 17.6542 4.71698 17.728 4.7278C17.7452 4.73236 17.761 4.74093 17.7742 4.75279C17.7873 4.76465 17.7974 4.77944 17.8036 4.79593C17.8033 4.81655 17.7983 4.83683 17.789 4.85526C17.7797 4.8737 17.7663 4.88982 17.7498 4.90241C17.667 4.93863 17.5809 4.96683 17.4926 4.98663C17.1247 5.08561 16.7565 5.18374 16.3879 5.28102C16.1403 5.346 15.9148 5.47476 15.7346 5.65411C15.5688 5.81432 15.3603 5.92489 15.1331 5.97303C14.9991 6.00844 14.8612 6.03365 14.7014 6.06624Z" fill="#DE6B38"/>
<path d="M26.0968 8.36687C25.9405 8.36367 25.7908 8.30379 25.6763 8.19869C25.5193 8.08526 25.3718 7.95965 25.2351 7.82305C24.7614 7.34055 24.349 6.8032 24.0068 6.22286C23.966 6.16112 23.9345 6.0939 23.9133 6.02331C23.9079 5.99953 23.908 5.97486 23.9136 5.95114C23.9192 5.92743 23.9301 5.90529 23.9457 5.88639C23.9661 5.87236 23.9897 5.86345 24.0144 5.86041C24.0392 5.85738 24.0643 5.8603 24.0877 5.86895C24.1477 5.89752 24.2 5.93966 24.2403 5.99193C24.386 6.17888 24.5192 6.37789 24.6741 6.55974C25.0118 6.96314 25.3601 7.36038 25.7004 7.76284C25.8189 7.90405 25.9304 8.05184 26.0404 8.20191C26.0651 8.25477 26.084 8.31008 26.0968 8.36687Z" fill="#DE6B38"/>
<path d="M7.63163 14.4425C7.70281 14.4442 7.77372 14.452 7.84358 14.4657C8.72574 14.7129 9.60771 14.9617 10.4895 15.2122C10.5306 15.2236 10.5679 15.2454 10.5979 15.2753C9.55783 15.1835 8.58929 14.8344 7.60798 14.534L7.63163 14.4425Z" fill="#DE6B38"/>
</svg>
