<svg width="18" height="18" viewBox="0 0 18 18" fill="none" xmlns="http://www.w3.org/2000/svg">
<path d="M8.8125 17.625C3.945 17.625 0 13.68 0 8.8125C0 3.945 3.945 0 8.8125 0C13.68 0 17.625 3.945 17.625 8.8125C17.625 11.1497 16.6965 13.3912 15.0439 15.0439C13.3912 16.6965 11.1497 17.625 8.8125 17.625ZM8.2875 5.5425C7.80533 5.56641 7.34951 5.7697 7.00954 6.11245C6.66956 6.4552 6.46999 6.91265 6.45 7.395C6.45 8.3025 7.005 8.895 8.1825 9.1425L9.0075 9.3375C9.81 9.525 10.14 9.795 10.14 10.2525C10.14 10.71 9.5625 11.16 8.8125 11.16C8.5461 11.1844 8.2782 11.1334 8.03946 11.0127C7.80072 10.892 7.60077 10.7065 7.4625 10.4775C7.42153 10.3906 7.35685 10.317 7.27592 10.2653C7.19498 10.2136 7.10107 10.1857 7.005 10.185H6.5625C6.52847 10.1913 6.49603 10.2043 6.46703 10.2232C6.43803 10.2421 6.41306 10.2665 6.39354 10.2951C6.37402 10.3236 6.36035 10.3558 6.3533 10.3897C6.34626 10.4236 6.34599 10.4585 6.3525 10.4925C6.46029 10.9324 6.7109 11.3242 7.06511 11.6065C7.41931 11.8887 7.85712 12.0456 8.31 12.0525V12.6825C8.31 12.8227 8.36571 12.9572 8.46487 13.0564C8.56403 13.1555 8.69852 13.2113 8.83875 13.2113C8.97898 13.2113 9.11347 13.1555 9.21263 13.0564C9.31179 12.9572 9.3675 12.8227 9.3675 12.6825V12.045C9.87959 12.0392 10.3692 11.8337 10.732 11.4723C11.0948 11.1109 11.3022 10.6221 11.31 10.11C11.31 9.1575 10.7625 8.61 9.465 8.3325L8.715 8.1675C7.965 7.98 7.6125 7.7325 7.6125 7.3125C7.6125 6.8925 8.0625 6.4275 8.8125 6.4275C9.0487 6.40283 9.287 6.44706 9.49861 6.55487C9.71022 6.66267 9.88609 6.82942 10.005 7.035C10.0532 7.13766 10.1295 7.22456 10.2251 7.28563C10.3207 7.34669 10.4316 7.37941 10.545 7.38H10.8975C10.9776 7.3604 11.0469 7.31013 11.0904 7.24001C11.1339 7.16988 11.1481 7.0855 11.13 7.005C11.0284 6.59883 10.8011 6.23512 10.4806 5.96576C10.16 5.6964 9.7626 5.53514 9.345 5.505V4.9875C9.345 4.84727 9.28929 4.71278 9.19013 4.61362C9.09097 4.51446 8.95648 4.45875 8.81625 4.45875C8.67602 4.45875 8.54153 4.51446 8.44237 4.61362C8.34321 4.71278 8.2875 4.84727 8.2875 4.9875V5.5425ZM2.205 8.8125C2.20586 10.1941 2.64073 11.5404 3.44819 12.6614C4.25565 13.7825 5.39489 14.6215 6.705 15.06H6.81C6.89951 15.06 6.98535 15.0244 7.04865 14.9611C7.11194 14.8979 7.1475 14.812 7.1475 14.7225V14.565C7.14775 14.4254 7.10654 14.2888 7.0291 14.1727C6.95165 14.0565 6.84147 13.966 6.7125 13.9125C5.6922 13.5007 4.81826 12.7933 4.20284 11.8813C3.58742 10.9692 3.25861 9.89403 3.25861 8.79375C3.25861 7.69347 3.58742 6.6183 4.20284 5.70624C4.81826 4.79417 5.6922 4.08683 6.7125 3.675C6.84087 3.62285 6.9508 3.53366 7.02828 3.41878C7.10575 3.30391 7.14726 3.16856 7.1475 3.03V2.8575C7.14799 2.80685 7.13625 2.75683 7.11329 2.71169C7.09033 2.66654 7.05682 2.62759 7.0156 2.59815C6.97439 2.56871 6.92668 2.54965 6.87653 2.54257C6.82637 2.53549 6.77525 2.54061 6.7275 2.5575C5.41197 2.99257 4.26697 3.83108 3.45512 4.95393C2.64328 6.07679 2.20586 7.4269 2.205 8.8125ZM15.42 8.8125C15.4176 7.43223 14.982 6.08754 14.1746 4.96801C13.3673 3.84849 12.2289 3.0106 10.92 2.5725H10.8075C10.714 2.5725 10.6244 2.60964 10.5582 2.67575C10.4921 2.74185 10.455 2.83151 10.455 2.925V3.0375C10.458 3.18215 10.5028 3.32284 10.584 3.44261C10.6652 3.56237 10.7793 3.6561 10.9125 3.7125C11.9305 4.12553 12.802 4.83292 13.4157 5.74413C14.0293 6.65534 14.3571 7.72893 14.3571 8.8275C14.3571 9.92607 14.0293 10.9997 13.4157 11.9109C12.802 12.8221 11.9305 13.5295 10.9125 13.9425C10.7818 13.9995 10.6701 14.0925 10.5904 14.2108C10.5107 14.329 10.4663 14.4675 10.4625 14.61V14.7375C10.4631 14.7931 10.4769 14.8478 10.5027 14.897C10.5285 14.9463 10.5656 14.9887 10.611 15.0209C10.6563 15.0531 10.7086 15.0741 10.7636 15.0822C10.8187 15.0903 10.8748 15.0852 10.9275 15.0675C12.2374 14.6273 13.3759 13.7866 14.182 12.6642C14.9882 11.5418 15.4212 10.1944 15.42 8.8125Z" fill="white"/>
</svg>
